<?xml version="1.0" encoding="UTF-8" standalone="no" ?>
<!DOCTYPE svg PUBLIC "-//W3C//DTD SVG 1.1//EN" "http://www.w3.org/Graphics/SVG/1.1/DTD/svg11.dtd">
<svg xmlns="http://www.w3.org/2000/svg" xmlns:xlink="http://www.w3.org/1999/xlink" version="1.1" width="1080" height="1080" viewBox="0 0 1080 1080" xml:space="preserve">
<desc>Created with Fabric.js 5.2.4</desc>
<defs>
</defs>
<g transform="matrix(1 0 0 1 540 540)" id="cc49a13b-3ba7-409a-a142-12833e1ae110"  >
<rect style="stroke: none; stroke-width: 1; stroke-dasharray: none; stroke-linecap: butt; stroke-dashoffset: 0; stroke-linejoin: miter; stroke-miterlimit: 4; fill: rgb(255,255,255); fill-rule: nonzero; opacity: 1; visibility: hidden;" vector-effect="non-scaling-stroke"  x="-540" y="-540" rx="0" ry="0" width="1080" height="1080" />
</g>
<g transform="matrix(1 0 0 1 540 540)" id="8119d860-f411-4bb9-9676-d6876bd83d67"  >
</g>
<g transform="matrix(NaN NaN NaN NaN 0 0)"  >
<g style=""   >
</g>
</g>
<g transform="matrix(NaN NaN NaN NaN 0 0)"  >
<g style=""   >
</g>
</g>
<g transform="matrix(45 0 0 45 540 540)"  >
<path style="stroke: rgb(0,0,0); stroke-width: 1.5; stroke-dasharray: none; stroke-linecap: round; stroke-dashoffset: 0; stroke-linejoin: round; stroke-miterlimit: 4; fill: none; fill-rule: nonzero; opacity: 1;"  transform=" translate(-12, -12)" d="M 15.75 6 C 15.75 8.071067811865476 14.071067811865476 9.75 12 9.75 C 9.928932188134524 9.75 8.25 8.071067811865476 8.25 6 C 8.25 3.9289321881345245 9.928932188134524 2.25 12 2.25 C 14.071067811865476 2.25 15.75 3.9289321881345236 15.75 5.999999999999999 Z M 4.501 20.118 C 4.567858819733018 16.024159607593226 7.905613689418483 12.74047040458828 12 12.74047040458828 C 16.094386310581516 12.74047040458828 19.432141180266978 16.024159607593226 19.499 20.117999999999995 C 17.146388320515413 21.19676646272033 14.588147300242186 21.753513941728983 11.999999999999996 21.75 C 9.324 21.75 6.784 21.166 4.501 20.118 Z" stroke-linecap="round" />
</g>
</svg>